<svg xmlns="http://www.w3.org/2000/svg" width="530" height="315" fill="currentColor" class="plot-d6a7b5" color="oklch(.8 .03 270)" font-family="Pretendard Variable" font-size="10" style="background:oklch(.3 .04 270);paddxing:15px 10px 0 20px" text-anchor="middle" viewBox="-20 -15 530 315">
  <g stroke="currentColor" stroke-opacity=".1" aria-hidden="true" aria-label="y-grid">
    <path d="M40 270h440M40 221.8h440M40 173.5h440M40 125.3h440M40 77.1h440M40 28.8h440"/>
  </g>
  <g fill="none" stroke="currentColor" aria-hidden="true" aria-label="y-axis tick">
    <path d="M40 270h-6M40 221.8h-6M40 173.5h-6M40 125.3h-6M40 77h-6M40 28.8h-6"/>
  </g>
  <g aria-label="y-axis tick label" font-variant="tabular-nums" text-anchor="end">
    <text y=".3em" transform="translate(31 270)">0.000</text>
    <text y=".3em" transform="translate(31 221.8)">0.001</text>
    <text y=".3em" transform="translate(31 173.5)">0.002</text>
    <text y=".3em" transform="translate(31 125.3)">0.003</text>
    <text y=".3em" transform="translate(31 77)">0.004</text>
    <text y=".3em" transform="translate(31 28.8)">0.005</text>
  </g>
  <text y=".7em" aria-label="y-axis label" text-anchor="start" transform="translate(3 3)">↑ p</text>
  <g fill="none" stroke="currentColor" aria-hidden="true" aria-label="x-axis tick">
    <path d="M40 270v6M150 270v6M260 270v6M370 270v6M480 270v6"/>
  </g>
  <g aria-label="x-axis tick label" font-variant="tabular-nums">
    <text y=".7em" transform="translate(40 279)">−4</text>
    <text y=".7em" transform="translate(150 279)">−2</text>
    <text y=".7em" transform="translate(260 279)">0</text>
    <text y=".7em" transform="translate(370 279)">2</text>
    <text y=".7em" transform="translate(480 279)">4</text>
  </g>
  <g fill="oklch(0.8 0.03 270)" aria-label="rect">
    <path d="M234.3 233.5h1.1V270h-1.1zM284.8 213.9h1.1V270h-1.1zM384.6 269.4h1.1v.6h-1.1zM189.6 226.5h1.1V270h-1.1zM320.3 262.4h1.1v7.6h-1.1zM258 174.5h1.1V270H258zM202.1 211.8h1.1V270h-1.1zM294.9 231.2h1.1V270h-1.1zM251.1 239.1h1.1V270h-1.1z" opacity=".3"/>
    <path d="M320 258.1h1.1V270H320zM249.4 237h1.1v33h-1.1zM235.2 195.3h1.1V270h-1.1zM286.5 248.8h1.1V270h-1.1zM257 256.4h1.1V270H257zM198.3 193.3h1.1V270h-1.1zM187.7 207.1h1.1V270h-1.1zM203.5 262.5h1.1v7.5h-1.1zM301 230h1.1v40H301zM364.3 64.7h1.1V270h-1.1zM173.6 195.1h1.1V270h-1.1zM139.1 265.3h1.1v4.7h-1.1zM274.4 249.2h1.1V270h-1.1z" opacity=".3"/>
    <path d="M287.5 216.8h1.1V270h-1.1zM270.8 246.9h1.1V270h-1.1zM178.2 244.9h1.1V270h-1.1zM314.6 233h1.1v37h-1.1zM204.8 173.2h1.1V270h-1.1zM283 211.6h1.1V270H283zM312.2 244.4h1.1V270h-1.1zM277 147.1h1.1V270H277zM354 251.9h1.1V270H354zM189.4 174.8h1.1V270h-1.1z" opacity=".3"/>
    <path d="M271.2 262h1.1v8h-1.1zM229.4 262.2h1.1v7.8h-1.1zM155.1 235.7h1.1V270h-1.1zM199.8 254.2h1.1V270h-1.1z" opacity=".3"/>
    <path d="M229.3 269h1.1v1h-1.1zM235.7 192h1.1v78h-1.1zM278.1 258.4h1.1V270h-1.1zM223.5 235.9h1.1V270h-1.1zM272.4 241.2h1.1V270h-1.1zM213.6 263.6h1.1v6.4h-1.1zM339.8 108.3h1.1V270h-1.1zM286.2 245.9h1.1V270h-1.1zM153.6 246.1h1.1V270h-1.1zM226.2 211.1h1.1V270h-1.1zM188.3 159.8h1.1V270h-1.1zM346.7 262.8h1.1v7.2h-1.1zM219.9 201.2h1.1V270h-1.1zM171.3 212.9h1.1V270h-1.1z" opacity=".3"/>
    <path d="M272.8 217h1.1v53h-1.1zM220.8 66.7h1.1V270h-1.1zM321.7 249.1h1.1V270h-1.1zM207.5 242.4h1.1V270h-1.1zM372.6 202.6h1.1V270h-1.1zM228.4 185.3h1.1V270h-1.1zM234 269.5h1.1v.5H234zM226 241.7h1.1V270H226zM239.5 232h1.1v38h-1.1zM238 140.7h1.1V270H238zM236.1 243.3h1.1V270h-1.1zM293.3 264.1h1.1v5.9h-1.1zM260.8 160.9h1.1V270h-1.1zM391 249.6h1.1V270H391zM184.8 92.4h1.1V270h-1.1z" opacity=".3"/>
    <path d="M236.5 229.5h1.1V270h-1.1zM389.5 230.9h1.1V270h-1.1zM287.6 114.3h1.1V270h-1.1zM197.5 192.8h1.1V270h-1.1zM291.9 245.9h1.1V270h-1.1zM238.5 226.1h1.1V270h-1.1zM270 250.4h1.1V270H270zM370.3 222.8h1.1V270h-1.1zM194.2 255.6h1.1V270h-1.1zM231.4 260.4h1.1v9.6h-1.1zM358.4 249.7h1.1V270h-1.1zM277.1 259.3h1.1V270h-1.1z" opacity=".3"/>
    <path d="M235.7 239.9h1.1V270h-1.1zM298.7 248.6h1.1V270h-1.1zM301.3 233.5h1.1V270h-1.1zM292.5 230h1.1v40h-1.1zM284.9 247h1.1v23h-1.1zM241.1 262.6h1.1v7.4h-1.1zM291.4 251.9h1.1V270h-1.1zM220.5 266h1.1v4h-1.1zM312.4 217.3h1.1V270h-1.1zM194.9 214.9h1.1V270h-1.1zM264.9 252.7h1.1V270h-1.1zM245.5 229h1.1v41h-1.1zM280.4 254.3h1.1V270h-1.1zM162.1 196.2h1.1V270h-1.1zM207.7 56.4h1.1V270h-1.1zM226 257.7h1.1V270H226zM297.3 263h1.1v7h-1.1zM286.6 234.1h1.1V270h-1.1zM319.7 233.9h1.1V270h-1.1zM408 151.5h1.1V270H408zM239 247.4h1.1V270H239zM330.6 249.3h1.1V270h-1.1zM200.4 175.9h1.1V270h-1.1zM126.9 241.2h1.1V270h-1.1zM339.5 127.1h1.1V270h-1.1z" opacity=".3"/>
    <path d="M299.2 215.4h1.1V270h-1.1z" opacity=".3"/>
    <path d="M300 254.5h1.1V270H300zM263.2 194.7h1.1V270h-1.1zM277.2 269.7h1.1v.3h-1.1zM254.9 258.7h1.1V270h-1.1zM146.1 268.6h1.1v1.4h-1.1zM261.3 265.6h1.1v4.4h-1.1zM241.9 257.7h1.1V270h-1.1zM259.4 232h1.1v38h-1.1zM240.4 150.1h1.1V270h-1.1zM294.2 211.5h1.1V270h-1.1zM213 184.3h1.1V270H213zM245.2 20h1.1v250h-1.1zM312.6 226.6h1.1V270h-1.1zM243.7 256.3h1.1V270h-1.1zM322.4 264.2h1.1v5.8h-1.1zM267.9 267.4h1.1v2.6h-1.1zM185 240.3h1.1V270H185z" opacity=".3"/>
    <path d="M212.8 143.6h1.1V270h-1.1zM230.8 218.2h1.1V270h-1.1zM278.7 248.2h1.1V270h-1.1zM288.6 258.6h1.1V270h-1.1zM263.2 246.5h1.1V270h-1.1zM251.4 240.4h1.1V270h-1.1zM292.5 266.3h1.1v3.7h-1.1zM190.3 207.6h1.1V270h-1.1zM273.3 210h1.1v60h-1.1zM254.8 231.9h1.1V270h-1.1z" opacity=".3"/>
    <path d="M272.6 214.9h1.1V270h-1.1zM277 265h1.1v5H277zM196.6 207.5h1.1V270h-1.1zM362.3 230h1.1v40h-1.1zM190.7 255.6h1.1V270h-1.1zM233.2 183.8h1.1V270h-1.1zM249.1 257.2h1.1V270h-1.1zM244.7 246.9h1.1V270h-1.1zM292.1 257.2h1.1V270h-1.1zM176.4 237.4h1.1V270h-1.1zM333.4 253.9h1.1V270h-1.1zM270.2 177.8h1.1V270h-1.1zM262.3 242.4h1.1V270h-1.1zM373.7 265.9h1.1v4.1h-1.1zM398 199.1h1.1V270H398zM301.4 157.2h1.1V270h-1.1zM170.3 263.3h1.1v6.7h-1.1zM247.3 213h1.1v57h-1.1zM285.1 234.2h1.1V270h-1.1z" opacity=".3"/>
    <path d="M244.7 267h1.1v3h-1.1zM310.7 214.3h1.1V270h-1.1zM225.5 67.3h1.1V270h-1.1zM255.6 248.6h1.1V270h-1.1zM216.6 209.6h1.1V270h-1.1zM212.4 268.6h1.1v1.4h-1.1zM210.8 253h1.1v17h-1.1zM282.4 259.5h1.1V270h-1.1zM287.1 185.6h1.1V270h-1.1zM250 223.6h1.1V270H250zM412.7 208.4h1.1V270h-1.1zM322.4 264.1h1.1v5.9h-1.1zM300 239.9h1.1V270H300zM203.1 241.7h1.1V270h-1.1zM177.5 204.9h1.1V270h-1.1zM242.5 190.3h1.1V270h-1.1zM200.3 73.4h1.1V270h-1.1zM219.4 166.7h1.1V270h-1.1zM297 185.6h1.1V270H297zM274.6 247.2h1.1V270h-1.1z" opacity=".3"/>
    <path d="M281.6 260.6h1.1v9.4h-1.1zM283.9 249.6h1.1V270h-1.1zM387.7 219.3h1.1V270h-1.1zM272.8 159.9h1.1V270h-1.1zM333.3 166.5h1.1V270h-1.1z" opacity=".3"/>
    <path d="M282.6 210.4h1.1V270h-1.1zM243.7 232.4h1.1V270h-1.1zM203.1 229.7h1.1V270h-1.1zM232.1 224.6h1.1V270h-1.1zM299.4 250.7h1.1V270h-1.1zM345.8 269.3h1.1v.7h-1.1zM254.6 252.7h1.1V270h-1.1z" opacity=".3"/>
    <path d="M255.5 260.5h1.1v9.5h-1.1zM311.8 249.2h1.1V270h-1.1zM209.3 223h1.1v47h-1.1zM212 248.3h1.1V270H212zM160.1 264.2h1.1v5.8h-1.1zM202.7 241.7h1.1V270h-1.1zM266.5 244.7h1.1V270h-1.1zM249.5 224.5h1.1V270h-1.1z" opacity=".3"/>
    <path d="M203.4 246.9h1.1V270h-1.1zM254.9 79.6h1.1V270h-1.1zM331.3 265.6h1.1v4.4h-1.1zM99.1 264.9h1.1v5.1h-1.1zM262.2 165.1h1.1V270h-1.1zM307.7 252.5h1.1V270h-1.1zM238.9 266.8h1.1v3.2h-1.1zM250.7 233.7h1.1V270h-1.1zM289.2 240.7h1.1V270h-1.1zM322.3 228.5h1.1V270h-1.1zM350.9 262.2h1.1v7.8h-1.1zM244.5 239.9h1.1V270h-1.1zM184 210.6h1.1V270H184z" opacity=".3"/>
    <path d="M250.4 251.4h1.1V270h-1.1zM264.6 261.3h1.1v8.7h-1.1zM214.3 265.8h1.1v4.2h-1.1zM222.7 250.7h1.1V270h-1.1zM186.3 207.1h1.1V270h-1.1zM282.2 240.9h1.1V270h-1.1zM200.7 228.8h1.1V270h-1.1zM220.2 264.1h1.1v5.9h-1.1zM225.3 217.5h1.1V270h-1.1zM255.7 238.7h1.1V270h-1.1zM262.4 258.6h1.1V270h-1.1zM340.8 230.3h1.1V270h-1.1zM318.6 268.8h1.1v1.2h-1.1zM325.2 183.8h1.1V270h-1.1zM195.9 268.7h1.1v1.3h-1.1zM293.1 249.1h1.1V270h-1.1zM267.1 262.4h1.1v7.6h-1.1zM296.9 233.4h1.1V270h-1.1zM183 250.5h1.1V270H183zM190.3 195h1.1v75h-1.1zM353.7 253h1.1v17h-1.1zM204.9 244.1h1.1V270h-1.1zM306.4 223h1.1v47h-1.1zM216.9 212.8h1.1V270h-1.1z" opacity=".3"/>
    <path d="M267 215.8h1.1V270H267zM382.3 266.8h1.1v3.2h-1.1zM255.3 160.2h1.1V270h-1.1zM236.4 245.5h1.1V270h-1.1zM265.5 237.6h1.1V270h-1.1zM292.8 164.1h1.1V270h-1.1zM257.8 250.8h1.1V270h-1.1zM176.3 263.3h1.1v6.7h-1.1zM363.4 253.4h1.1V270h-1.1zM261.2 228.9h1.1V270h-1.1zM311.8 164.2h1.1V270h-1.1zM274.5 237.9h1.1V270h-1.1zM291.7 261.4h1.1v8.6h-1.1zM184.7 245.3h1.1V270h-1.1zM220.4 260.9h1.1v9.1h-1.1zM198.9 264.1h1.1v5.9h-1.1zM262.9 229.9h1.1V270h-1.1zM223.2 254h1.1v16h-1.1zM288.8 268.2h1.1v1.8h-1.1zM344.2 176.9h1.1V270h-1.1zM282.2 214.1h1.1V270h-1.1zM354.9 269.1h1.1v.9h-1.1z" opacity=".3"/>
    <path d="M266.2 259.2h1.1V270h-1.1zM145.9 258.5h1.1V270h-1.1zM227.4 246h1.1v24h-1.1zM262.1 221.8h1.1V270h-1.1zM252 233.3h1.1V270H252zM312.9 177.9h1.1V270h-1.1zM203.8 197.7h1.1V270h-1.1z" opacity=".3"/>
    <path d="M262.9 226.6h1.1V270h-1.1zM244.4 263.8h1.1v6.2h-1.1zM248.5 260.5h1.1v9.5h-1.1zM105.6 195.1h1.1V270h-1.1zM339.2 228.6h1.1V270h-1.1zM281.6 239.6h1.1V270h-1.1zM284.8 247.2h1.1V270h-1.1zM295.6 241.7h1.1V270h-1.1z" opacity=".3"/>
    <path d="M284.5 203.5h1.1V270h-1.1zM349.1 184.6h1.1V270h-1.1zM222.6 139.7h1.1V270h-1.1zM265.7 258.6h1.1V270h-1.1zM239 200.6h1.1V270H239zM290.7 267.2h1.1v2.8h-1.1z" opacity=".3"/>
    <path d="M223.5 262.5h1.1v7.5h-1.1zM266.9 251.4h1.1V270h-1.1zM253.5 215.3h1.1V270h-1.1zM381.3 263.3h1.1v6.7h-1.1zM192.1 269.4h1.1v.6h-1.1z" opacity=".3"/>
    <path d="M254.2 243.7h1.1V270h-1.1zM342 259.3h1.1V270H342z" opacity=".3"/>
    <path d="M255.2 219.8h1.1V270h-1.1zM253.1 263.4h1.1v6.6h-1.1zM294.3 254.4h1.1V270h-1.1zM220.2 264.2h1.1v5.8h-1.1zM184.3 261.8h1.1v8.2h-1.1zM156.3 222.7h1.1V270h-1.1zM266.7 240.5h1.1V270h-1.1zM313.4 241h1.1v29h-1.1zM241.3 267.2h1.1v2.8h-1.1zM280.1 258.1h1.1V270h-1.1zM211 247.3h1.1V270H211z" opacity=".3"/>
    <path d="M253.2 216.1h1.1V270h-1.1zM327.7 203.6h1.1V270h-1.1zM244 243.7h1.1V270H244zM230.7 220.5h1.1V270h-1.1zM289.8 249.7h1.1V270h-1.1zM358.3 264.6h1.1v5.4h-1.1zM112.4 267.6h1.1v2.4h-1.1z" opacity=".3"/>
    <path d="M230.2 120.6h1.1V270h-1.1zM262.5 267.9h1.1v2.1h-1.1zM253.5 198.9h1.1V270h-1.1zM180.9 261.5h1.1v8.5h-1.1zM217.1 243.5h1.1V270h-1.1zM168.6 151.8h1.1V270h-1.1zM292 264.8h1.1v5.2H292zM203.4 261.5h1.1v8.5h-1.1zM185.1 243.2h1.1V270h-1.1zM297.7 224.6h1.1V270h-1.1zM248.5 249h1.1v21h-1.1zM259.4 253.8h1.1V270h-1.1zM165.5 268.6h1.1v1.4h-1.1zM295.6 252.6h1.1V270h-1.1zM141.6 250.4h1.1V270h-1.1zM241.8 213h1.1v57h-1.1z" opacity=".3"/>
    <path d="M259.9 240.8h1.1V270h-1.1zM236.8 197.2h1.1V270h-1.1zM276.2 214.5h1.1V270h-1.1z" opacity=".3"/>
    <path d="M276 232.5h1.1V270H276zM300.7 265.7h1.1v4.3h-1.1zM160.8 266.7h1.1v3.3h-1.1zM228.6 201.6h1.1V270h-1.1zM202 261.9h1.1v8.1H202zM262.9 223.1h1.1V270h-1.1zM297 267.2h1.1v2.8H297zM261.5 268.3h1.1v1.7h-1.1zM290.9 196.3h1.1V270h-1.1zM344.5 231.1h1.1V270h-1.1zM183.7 237h1.1v33h-1.1zM257.3 213.7h1.1V270h-1.1zM193.2 224.2h1.1V270h-1.1z" opacity=".3"/>
    <path d="M262 221.2h1.1V270H262zM333.4 269.6h1.1v.4h-1.1zM214.3 225.2h1.1V270h-1.1zM320.5 265h1.1v5h-1.1zM246.8 251.7h1.1V270h-1.1z" opacity=".3"/>
    <path d="M246.7 227.1h1.1V270h-1.1zM291.5 253.4h1.1V270h-1.1zM302.4 250.8h1.1V270h-1.1zM161.9 179.8h1.1V270h-1.1zM325.2 194.1h1.1V270h-1.1zM255.1 231.4h1.1V270h-1.1zM219.4 195.6h1.1V270h-1.1zM336.6 200.5h1.1V270h-1.1zM209.9 236.7h1.1V270h-1.1zM345.6 240.5h1.1V270h-1.1zM327.7 210.5h1.1V270h-1.1zM231.5 263.2h1.1v6.8h-1.1zM183 178.7h1.1V270H183zM147.4 245.8h1.1V270h-1.1zM343.2 263.1h1.1v6.9h-1.1z" opacity=".3"/>
    <path d="M231.1 191h1.1v79h-1.1zM223.1 238.4h1.1V270h-1.1zM253.4 269.2h1.1v.8h-1.1zM317.8 220.7h1.1V270h-1.1zM243.8 261.9h1.1v8.1h-1.1zM212.9 198.4h1.1V270h-1.1zM301.1 158.5h1.1V270h-1.1zM214.5 256.3h1.1V270h-1.1zM283.1 241.2h1.1V270h-1.1zM310.6 255.3h1.1V270h-1.1zM316.1 130.5h1.1V270h-1.1zM240.5 258.2h1.1V270h-1.1zM328.7 244.4h1.1V270h-1.1zM332 254.3h1.1V270H332zM289.9 228.9h1.1V270h-1.1zM200.8 266.2h1.1v3.8h-1.1zM229.6 256.4h1.1V270h-1.1zM225.8 157.6h1.1V270h-1.1zM255 229.6h1.1V270H255zM176.4 205.3h1.1V270h-1.1zM195.5 232.3h1.1V270h-1.1zM256.4 220.2h1.1V270h-1.1zM281.1 267.2h1.1v2.8h-1.1z" opacity=".3"/>
    <path d="M231 259.2h1.1V270H231zM251.1 266.2h1.1v3.8h-1.1zM257.3 234.6h1.1V270h-1.1z" opacity=".3"/>
    <path d="M251.7 264.7h1.1v5.3h-1.1zM361 266h1.1v4H361zM275.5 267h1.1v3h-1.1zM317.4 43.7h1.1V270h-1.1zM346.3 251.3h1.1V270h-1.1zM201.8 247.9h1.1V270h-1.1zM261.4 246.5h1.1V270h-1.1zM217.3 229.6h1.1V270h-1.1zM309.3 247.7h1.1V270h-1.1zM335.6 257.3h1.1V270h-1.1zM197.4 265.5h1.1v4.5h-1.1zM274.3 214.5h1.1V270h-1.1zM164.2 264.7h1.1v5.3h-1.1z" opacity=".3"/>
    <path d="M252.2 248.1h1.1V270h-1.1zM228.6 246.3h1.1V270h-1.1zM153.3 256h1.1v14h-1.1zM334.2 262.1h1.1v7.9h-1.1zM159.4 220.8h1.1V270h-1.1zM351.2 200.2h1.1V270h-1.1zM187.5 241.8h1.1V270h-1.1zM217.9 261h1.1v9h-1.1zM178.3 150.9h1.1V270h-1.1zM221.9 241.4h1.1V270h-1.1zM362.4 256.3h1.1V270h-1.1zM400.6 107.7h1.1V270h-1.1zM241.1 241.8h1.1V270h-1.1zM167.7 255.6h1.1V270h-1.1zM294.1 260h1.1v10h-1.1zM298 263h1.1v7H298zM264.8 239.6h1.1V270h-1.1zM205 268.9h1.1v1.1H205zM248.7 209.1h1.1V270h-1.1zM215.4 251h1.1v19h-1.1zM212.8 264h1.1v6h-1.1zM256.7 267.8h1.1v2.2h-1.1z" opacity=".3"/>
    <path d="M293.6 222.8h1.1V270h-1.1zM178.6 169.6h1.1V270h-1.1zM213.7 242h1.1v28h-1.1zM239.9 242.7h1.1V270h-1.1zM383.1 245.1h1.1V270h-1.1zM275.8 220.3h1.1V270h-1.1zM223.2 265.5h1.1v4.5h-1.1zM323.9 260.7h1.1v9.3h-1.1zM270.2 121.1h1.1V270h-1.1zM232.3 240h1.1v30h-1.1zM196 267.3h1.1v2.7H196zM244.7 239.6h1.1V270h-1.1zM284 237.8h1.1V270H284z" opacity=".3"/>
    <path d="M239.1 250.9h1.1V270h-1.1zM198 172.1h1.1V270H198zM194.3 232.2h1.1V270h-1.1zM233.2 209.4h1.1V270h-1.1z" opacity=".3"/>
    <path d="M193.7 222.1h1.1V270h-1.1zM291.6 228.4h1.1V270h-1.1zM220.3 264.7h1.1v5.3h-1.1zM307.7 244.8h1.1V270h-1.1z" opacity=".3"/>
    <path d="M194 257.1h1.1V270H194zM214.3 223.8h1.1V270h-1.1zM240.5 244.9h1.1V270h-1.1zM273.1 253.7h1.1V270h-1.1zM229.6 195.4h1.1V270h-1.1zM291.7 266.7h1.1v3.3h-1.1zM268.5 248.4h1.1V270h-1.1zM275.5 263.5h1.1v6.5h-1.1zM230.8 224.6h1.1V270h-1.1z" opacity=".3"/>
    <path d="M229.1 266.1h1.1v3.9h-1.1zM281.8 260h1.1v10h-1.1zM355.4 210.2h1.1V270h-1.1zM244.2 244.9h1.1V270h-1.1zM279.7 239.2h1.1V270h-1.1zM238.9 193.6h1.1V270h-1.1z" opacity=".3"/>
    <path d="M228.8 250.8h1.1V270h-1.1zM299.1 265h1.1v5h-1.1zM282.9 258.5h1.1V270h-1.1zM328.9 256.9h1.1V270h-1.1zM172.9 244.1h1.1V270h-1.1zM234.6 231.4h1.1V270h-1.1zM277.1 252.2h1.1V270h-1.1zM224.9 222.7h1.1V270h-1.1zM263.9 242.5h1.1V270h-1.1zM221.1 242.1h1.1V270h-1.1zM394.9 252.5h1.1V270h-1.1z" opacity=".3"/>
    <path d="M276.8 214.6h1.1V270h-1.1zM248.3 256.8h1.1V270h-1.1zM296.7 247h1.1v23h-1.1zM298.5 169.6h1.1V270h-1.1z" opacity=".3"/>
    <path d="M297.7 211h1.1v59h-1.1zM308.5 250.6h1.1V270h-1.1zM199.7 206.7h1.1V270h-1.1zM211.6 254.2h1.1V270h-1.1zM317.6 196.3h1.1V270h-1.1zM290.4 263.8h1.1v6.2h-1.1zM269.7 265h1.1v5h-1.1zM262 248.9h1.1V270H262zM273.1 255.8h1.1V270h-1.1zM146.1 124.4h1.1V270h-1.1zM295.7 259.6h1.1V270h-1.1z" opacity=".3"/>
    <path d="M273.3 260.5h1.1v9.5h-1.1zM267.7 250.2h1.1V270h-1.1zM182.5 231.9h1.1V270h-1.1zM228.8 258.7h1.1V270h-1.1z" opacity=".3"/>
    <path d="M229.1 268.8h1.1v1.2h-1.1zM257.1 243.1h1.1V270h-1.1zM254.2 267.4h1.1v2.6h-1.1zM293.8 183.2h1.1V270h-1.1zM204.5 264.7h1.1v5.3h-1.1zM255.3 255.5h1.1V270h-1.1zM310.1 239.2h1.1V270h-1.1zM238.2 262.1h1.1v7.9h-1.1zM361.1 242.8h1.1V270h-1.1zM260.1 171.9h1.1V270h-1.1zM316.7 214h1.1v56h-1.1zM222.9 237.8h1.1V270h-1.1zM278.8 257.1h1.1V270h-1.1zM209.8 250.9h1.1V270h-1.1z" opacity=".3"/>
    <path d="M278.1 254h1.1v16h-1.1zM221.5 246.8h1.1V270h-1.1zM262.6 268.8h1.1v1.2h-1.1zM300 262.5h1.1v7.5H300zM233.8 253.9h1.1V270h-1.1zM213.6 264.2h1.1v5.8h-1.1zM257.9 264.6h1.1v5.4h-1.1zM297.2 199.9h1.1V270h-1.1zM270.6 257.7h1.1V270h-1.1zM267.3 265.8h1.1v4.2h-1.1zM243.3 189.1h1.1V270h-1.1zM204.3 246.1h1.1V270h-1.1zM249.2 248.7h1.1V270h-1.1zM180.3 258.8h1.1V270h-1.1zM235.2 228.6h1.1V270h-1.1zM245.4 202.5h1.1V270h-1.1zM184.9 242.6h1.1V270h-1.1zM294.3 251.3h1.1V270h-1.1zM172.3 267.6h1.1v2.4h-1.1zM208.6 250.4h1.1V270h-1.1zM264.2 255.2h1.1V270h-1.1zM192.5 233.9h1.1V270h-1.1zM218.5 247.3h1.1V270h-1.1zM342.6 253.4h1.1V270h-1.1zM238.8 213.6h1.1V270h-1.1z" opacity=".3"/>
    <path d="M258.4 253.4h1.1V270h-1.1zM393 263.8h1.1v6.2H393zM182.9 268.4h1.1v1.6h-1.1zM310.6 254.8h1.1V270h-1.1zM226 253.1h1.1V270H226zM204.3 235.1h1.1V270h-1.1zM332.3 205.6h1.1V270h-1.1zM273.4 251.3h1.1V270h-1.1zM205.5 211.2h1.1V270h-1.1zM228 213.4h1.1V270H228zM296.9 263.8h1.1v6.2h-1.1zM261.7 222.3h1.1V270h-1.1zM277.1 216.8h1.1V270h-1.1zM280 256.4h1.1V270H280zM340.3 225.1h1.1V270h-1.1zM248.1 261.8h1.1v8.2h-1.1zM267.4 229.5h1.1V270h-1.1zM201.9 245.6h1.1V270h-1.1zM288.7 252.9h1.1V270h-1.1zM255.2 236.6h1.1V270h-1.1zM368.1 250h1.1v20h-1.1zM246.7 235.2h1.1V270h-1.1zM223.3 237h1.1v33h-1.1zM166.1 182.2h1.1V270h-1.1zM119.2 249.6h1.1V270h-1.1zM271.2 258.3h1.1V270h-1.1zM184 251.2h1.1V270H184zM256.6 246.1h1.1V270h-1.1zM281.7 198.1h1.1V270h-1.1zM341.5 247.5h1.1V270h-1.1zM207.2 269.8h1.1v.2h-1.1z" opacity=".3"/>
    <path d="M207.9 268.7h1.1v1.3h-1.1zM240.7 263.1h1.1v6.9h-1.1zM225.3 237.3h1.1V270h-1.1zM286.5 211.5h1.1V270h-1.1zM277.5 230.5h1.1V270h-1.1zM232.2 259.4h1.1V270h-1.1zM234.1 258h1.1v12h-1.1zM309.1 202.3h1.1V270h-1.1zM227.8 250.5h1.1V270h-1.1zM251.4 249.6h1.1V270h-1.1zM209.9 267.1h1.1v2.9h-1.1zM244 254.4h1.1V270H244z" opacity=".3"/>
    <path d="M210.6 258.2h1.1V270h-1.1zM220.4 241.9h1.1V270h-1.1zM351.7 268.2h1.1v1.8h-1.1zM267.6 238.4h1.1V270h-1.1zM337.5 229.1h1.1V270h-1.1zM164.5 253h1.1v17h-1.1zM233.8 215.8h1.1V270h-1.1z" opacity=".3"/>
    <path d="M266.8 242h1.1v28h-1.1zM282.1 208.7h1.1V270h-1.1zM320.8 123.5h1.1V270h-1.1zM306.7 269.3h1.1v.7h-1.1zM194.4 269.4h1.1v.6h-1.1zM214.8 263.5h1.1v6.5h-1.1zM379.8 236.2h1.1V270h-1.1zM284.5 269.5h1.1v.5h-1.1zM280.2 228.8h1.1V270h-1.1zM315.4 209.2h1.1V270h-1.1zM293.4 253.7h1.1V270h-1.1zM311.7 175.6h1.1V270h-1.1zM240 259.8h1.1V270H240z" opacity=".3"/>
    <path d="M320.3 162.3h1.1V270h-1.1zM174.6 268.3h1.1v1.7h-1.1zM345.5 262.3h1.1v7.7h-1.1zM215.8 235.9h1.1V270h-1.1zM336.6 242.2h1.1V270h-1.1zM266.4 256.4h1.1V270h-1.1zM276.9 210.8h1.1V270h-1.1zM280.9 268h1.1v2h-1.1zM162.5 241.3h1.1V270h-1.1zM251.1 205.4h1.1V270h-1.1z" opacity=".3"/>
    <path d="M277.6 239h1.1v31h-1.1zM295.9 268.3h1.1v1.7h-1.1zM240.9 219.9h1.1V270h-1.1zM175.4 250.3h1.1V270h-1.1zM151.7 255.6h1.1V270h-1.1zM310.1 252.3h1.1V270h-1.1zM237.8 257.6h1.1V270h-1.1zM273.3 245.6h1.1V270h-1.1zM316.1 220.5h1.1V270h-1.1zM283.8 268.6h1.1v1.4h-1.1zM217 218.7h1.1V270H217z" opacity=".3"/>
    <path d="M317 265.8h1.1v4.2H317zM309.2 268.9h1.1v1.1h-1.1zM390.2 248.4h1.1V270h-1.1zM155.5 165.8h1.1V270h-1.1zM337.5 241h1.1v29h-1.1zM354.1 253.1h1.1V270h-1.1zM259.8 267.3h1.1v2.7h-1.1zM243 242.8h1.1V270H243zM204.1 236.4h1.1V270h-1.1zM214.7 224.7h1.1V270h-1.1zM264 261.7h1.1v8.3H264zM266 183.7h1.1V270H266zM202.7 230.4h1.1V270h-1.1z" opacity=".3"/>
    <path d="M263.9 261.5h1.1v8.5h-1.1zM318.3 264.3h1.1v5.7h-1.1zM289 256h1.1v14H289zM254.6 244.8h1.1V270h-1.1zM196.9 265.4h1.1v4.6h-1.1zM269.3 269h1.1v1h-1.1zM262.3 245.1h1.1V270h-1.1zM357.8 265.4h1.1v4.6h-1.1zM147.7 254.3h1.1V270h-1.1zM296.9 260h1.1v10h-1.1zM243.9 268.6h1.1v1.4h-1.1zM223 225.7h1.1V270H223zM267.1 257.5h1.1V270h-1.1zM228 235.8h1.1V270H228zM285.5 258.1h1.1V270h-1.1zM259.1 267h1.1v3h-1.1zM282.1 259.1h1.1V270h-1.1zM245.9 192.5h1.1V270h-1.1z" opacity=".3"/>
    <path d="M222.5 249.2h1.1V270h-1.1zM174.8 269.5h1.1v.5h-1.1zM287.5 224.5h1.1V270h-1.1zM402.8 260.1h1.1v9.9h-1.1zM331.1 251h1.1v19h-1.1zM318.9 265.3h1.1v4.7h-1.1zM263 261.6h1.1v8.4H263zM191.5 259.4h1.1V270h-1.1zM280.2 263.6h1.1v6.4h-1.1zM350.4 245.7h1.1V270h-1.1zM272.3 260.1h1.1v9.9h-1.1zM293.5 238h1.1v32h-1.1zM140.1 241.8h1.1V270h-1.1zM189.2 261.6h1.1v8.4h-1.1zM265.2 267.5h1.1v2.5h-1.1zM254 205h1.1v65H254zM311.2 265.8h1.1v4.2h-1.1zM260.8 177.6h1.1V270h-1.1zM269 269.8h1.1v.2H269zM310 225.7h1.1V270H310zM258.5 250.2h1.1V270h-1.1z" opacity=".3"/>
    <path d="M330.4 268.5h1.1v1.5h-1.1zM164.8 229.6h1.1V270h-1.1zM300.3 251.2h1.1V270h-1.1zM197.2 265h1.1v5h-1.1zM303.4 250h1.1v20h-1.1zM363.7 267.7h1.1v2.3h-1.1zM208.6 251.8h1.1V270h-1.1zM262.2 266.2h1.1v3.8h-1.1zM251.2 244.7h1.1V270h-1.1zM167 258.1h1.1V270H167zM264.1 269.7h1.1v.3h-1.1zM255.5 255.3h1.1V270h-1.1zM195.6 239.1h1.1V270h-1.1zM188.2 218.1h1.1V270h-1.1zM322.8 268.8h1.1v1.2h-1.1zM266.1 263.9h1.1v6.1h-1.1zM229 259.2h1.1V270H229zM248 263.3h1.1v6.7H248zM223 241.4h1.1V270H223z" opacity=".3"/>
    <path d="M223.8 268h1.1v2h-1.1zM287.5 222.6h1.1V270h-1.1zM289.2 265.3h1.1v4.7h-1.1zM320.6 225.4h1.1V270h-1.1zM204.5 256.1h1.1V270h-1.1zM282.3 226.3h1.1V270h-1.1z" opacity=".3"/>
    <path d="M283.4 259.8h1.1V270h-1.1zM300.2 250.4h1.1V270h-1.1zM328.2 255.4h1.1V270h-1.1z" opacity=".3"/>
    <path d="M284.4 239h1.1v31h-1.1zM235.1 263.6h1.1v6.4h-1.1zM360.7 216h1.1v54h-1.1zM142.7 267.6h1.1v2.4h-1.1zM239 266.7h1.1v3.3H239zM187.6 244.7h1.1V270h-1.1zM243.8 269.8h1.1v.2h-1.1zM264.8 239.4h1.1V270h-1.1zM287 167.7h1.1V270H287zM260.8 264.6h1.1v5.4h-1.1zM227.5 266.2h1.1v3.8h-1.1zM145.2 237.4h1.1V270h-1.1zM308.5 245h1.1v25h-1.1zM246.7 249.4h1.1V270h-1.1zM310.1 261.4h1.1v8.6h-1.1zM311.3 261.3h1.1v8.7h-1.1zM302.7 265h1.1v5h-1.1z" opacity=".3"/>
    <path d="M187.3 255.4h1.1V270h-1.1zM281.1 230.2h1.1V270h-1.1zM268.9 267.8h1.1v2.2h-1.1zM272 263h1.1v7H272zM233.7 261.8h1.1v8.2h-1.1zM251.6 265.1h1.1v4.9h-1.1zM225.5 239h1.1v31h-1.1zM326.8 259.7h1.1V270h-1.1z" opacity=".3"/>
    <path d="M326.2 251.4h1.1V270h-1.1zM271.7 264.1h1.1v5.9h-1.1zM227.3 268h1.1v2h-1.1zM274.2 265.2h1.1v4.8h-1.1z" opacity=".3"/>
    <path d="M270.9 254.3h1.1V270h-1.1zM211.8 256.7h1.1V270h-1.1zM334.2 178.4h1.1V270h-1.1zM272.6 267.8h1.1v2.2h-1.1zM266.7 267.8h1.1v2.2h-1.1zM263.3 231.6h1.1V270h-1.1zM261.9 269.5h1.1v.5h-1.1zM269 231.7h1.1V270H269zM319 212.8h1.1V270H319zM362.6 238.6h1.1V270h-1.1zM258.7 263.5h1.1v6.5h-1.1zM316.8 263.4h1.1v6.6h-1.1zM265.1 219.3h1.1V270h-1.1zM305.4 257.8h1.1V270h-1.1zM347 221.9h1.1V270H347z" opacity=".3"/>
    <path d="M211.3 250.6h1.1V270h-1.1zM291.1 261.3h1.1v8.7h-1.1zM282.4 241.3h1.1V270h-1.1zM273.6 256.3h1.1V270h-1.1zM210.1 225h1.1v45h-1.1zM313.6 268.4h1.1v1.6h-1.1zM205.3 268.1h1.1v1.9h-1.1zM286.9 267.2h1.1v2.8h-1.1zM337.9 265h1.1v5h-1.1zM178.4 269h1.1v1h-1.1zM255.2 229.8h1.1V270h-1.1zM265.8 256.4h1.1V270h-1.1zM220.3 234.9h1.1V270h-1.1zM187.2 261.7h1.1v8.3h-1.1zM173.4 213.6h1.1V270h-1.1zM279.9 238.9h1.1V270h-1.1zM215 250.6h1.1V270H215zM212.7 238.9h1.1V270h-1.1zM257.3 240h1.1v30h-1.1zM298.2 234.9h1.1V270h-1.1zM276.7 263.1h1.1v6.9h-1.1zM333.4 245.9h1.1V270h-1.1zM223.3 259.7h1.1V270h-1.1zM228.7 239.5h1.1V270h-1.1zM238.7 260.1h1.1v9.9h-1.1zM316.4 259h1.1v11h-1.1zM306.4 268.7h1.1v1.3h-1.1zM245.5 210.2h1.1V270h-1.1zM155.6 228.1h1.1V270h-1.1zM199.6 240.8h1.1V270h-1.1z" opacity=".3"/>
    <path d="M280.5 268.1h1.1v1.9h-1.1zM235.8 243h1.1v27h-1.1zM268.6 266.4h1.1v3.6h-1.1zM297.6 257h1.1v13h-1.1zM260.4 269.3h1.1v.7h-1.1zM195.2 264.4h1.1v5.6h-1.1zM238.7 257.7h1.1V270h-1.1zM204.9 265.8h1.1v4.2h-1.1zM209.8 254.8h1.1V270h-1.1zM228.5 209.6h1.1V270h-1.1z" opacity=".3"/>
    <path d="M238.9 190.9h1.1V270h-1.1zM312.6 261.4h1.1v8.6h-1.1zM256.4 206.7h1.1V270h-1.1z" opacity=".3"/>
    <path d="M239.5 238.3h1.1V270h-1.1zM291.7 268.1h1.1v1.9h-1.1zM254.9 258.5h1.1V270h-1.1zM348.7 218.7h1.1V270h-1.1zM328.7 268.9h1.1v1.1h-1.1zM379.9 267.9h1.1v2.1h-1.1zM190.2 213h1.1v57h-1.1zM312.3 257.7h1.1V270h-1.1zM323.3 258.2h1.1V270h-1.1zM196.3 203.5h1.1V270h-1.1zM396.4 257.5h1.1V270h-1.1z" opacity=".3"/>
    <path d="M255.9 262.2h1.1v7.8h-1.1zM135.4 257h1.1v13h-1.1zM321.7 203.7h1.1V270h-1.1zM254.6 249.6h1.1V270h-1.1zM228 269.5h1.1v.5H228zM132.2 218.9h1.1V270h-1.1zM418.3 265h1.1v5h-1.1z" opacity=".3"/>
    <path d="M254.4 261h1.1v9h-1.1zM248.4 258.6h1.1V270h-1.1zM186.9 256.5h1.1V270h-1.1zM267.7 259.6h1.1V270h-1.1zM271.4 259.1h1.1V270h-1.1zM291.2 263.9h1.1v6.1h-1.1zM242 262.1h1.1v7.9H242zM262.2 244.3h1.1V270h-1.1zM154.4 255.8h1.1V270h-1.1zM281.7 252.4h1.1V270h-1.1zM207.3 258.2h1.1V270h-1.1zM298.6 218.7h1.1V270h-1.1zM280 248.9h1.1V270H280zM219.2 208.8h1.1V270h-1.1zM234.2 263.5h1.1v6.5h-1.1zM288.2 266.3h1.1v3.7h-1.1zM217.5 242.6h1.1V270h-1.1zM344.5 239.5h1.1V270h-1.1z" opacity=".3"/>
    <path d="M344 263.4h1.1v6.6H344zM317.3 250.2h1.1V270h-1.1zM364.7 266.9h1.1v3.1h-1.1zM295.4 256.9h1.1V270h-1.1zM255.1 254.1h1.1V270h-1.1zM331.3 242.4h1.1V270h-1.1zM284.7 227.8h1.1V270h-1.1zM243.2 243.4h1.1V270h-1.1zM334.5 266.3h1.1v3.7h-1.1z" opacity=".3"/>
    <path d="M365.3 267.3h1.1v2.7h-1.1zM240.9 262.9h1.1v7.1h-1.1zM265.9 226.4h1.1V270h-1.1zM219.1 249.2h1.1V270h-1.1zM188.9 239.2h1.1V270h-1.1zM250.8 255.5h1.1V270h-1.1zM273.1 231h1.1v39h-1.1zM230.9 220.8h1.1V270h-1.1zM255.2 254.6h1.1V270h-1.1z" opacity=".3"/>
    <path d="M240.9 259.6h1.1V270h-1.1zM237.3 255h1.1v15h-1.1zM248.3 257h1.1v13h-1.1zM279.7 187.3h1.1V270h-1.1zM231.5 265.2h1.1v4.8h-1.1zM222.7 247.9h1.1V270h-1.1zM304.3 268.1h1.1v1.9h-1.1zM381.5 258h1.1v12h-1.1zM296.6 252.6h1.1V270h-1.1zM327.7 246.3h1.1V270h-1.1zM323.4 184.4h1.1V270h-1.1zM278.5 264.7h1.1v5.3h-1.1zM308.9 243.9h1.1V270h-1.1zM329 251h1.1v19H329zM245.9 239.9h1.1V270h-1.1zM258.9 226.1h1.1V270h-1.1zM203.4 260.3h1.1v9.7h-1.1zM227.8 269h1.1v1h-1.1zM235.9 257.9h1.1V270h-1.1zM293.7 269.2h1.1v.8h-1.1zM287.5 210.8h1.1V270h-1.1zM198.9 268.9h1.1v1.1h-1.1zM274.8 269.7h1.1v.3h-1.1zM331.3 202.2h1.1V270h-1.1zM265 260.6h1.1v9.4H265zM260.9 249.6h1.1V270h-1.1z" opacity=".3"/>
    <path d="M297.4 251.7h1.1V270h-1.1zM338.2 263.4h1.1v6.6h-1.1zM169 234h1.1v36H169zM318.8 243.7h1.1V270h-1.1zM239.2 208.9h1.1V270h-1.1zM347.2 269h1.1v1h-1.1zM228.2 251.4h1.1V270h-1.1zM204.5 183.4h1.1V270h-1.1zM208.7 251.2h1.1V270h-1.1z" opacity=".3"/>
    <path d="M227.8 247.9h1.1V270h-1.1zM96.7 267.1h1.1v2.9h-1.1zM199.9 227.7h1.1V270h-1.1zM299.6 229.4h1.1V270h-1.1zM303.8 247.9h1.1V270h-1.1zM356.8 234.9h1.1V270h-1.1zM362.6 226h1.1v44h-1.1zM243.8 266.7h1.1v3.3h-1.1zM132.7 243.5h1.1V270h-1.1zM211.9 253.9h1.1V270h-1.1zM291.3 243.8h1.1V270h-1.1zM265.1 266.9h1.1v3.1h-1.1zM260.9 265.5h1.1v4.5h-1.1zM316.8 160.8h1.1V270h-1.1zM238.1 254.6h1.1V270h-1.1zM232.2 258.6h1.1V270h-1.1zM335.1 269.8h1.1v.2h-1.1zM305.2 269.6h1.1v.4h-1.1zM295.2 268.8h1.1v1.2h-1.1zM269.1 166.9h1.1V270h-1.1z" opacity=".3"/>
    <path d="M227.2 266.9h1.1v3.1h-1.1zM319.9 219.7h1.1V270h-1.1zM288.9 268.4h1.1v1.6h-1.1zM323.1 241.5h1.1V270h-1.1zM295.6 252.4h1.1V270h-1.1zM183 250.8h1.1V270H183zM275.1 265.6h1.1v4.4h-1.1zM299.8 265.6h1.1v4.4h-1.1zM203.1 267.3h1.1v2.7h-1.1zM307 269.9h1.1v.1H307zM264.2 263.7h1.1v6.3h-1.1zM220.1 265.7h1.1v4.3h-1.1z" opacity=".3"/>
    <path d="M318.9 263.5h1.1v6.5h-1.1zM328.8 255.7h1.1V270h-1.1zM275.9 255.1h1.1V270h-1.1zM344.6 265.5h1.1v4.5h-1.1zM172.7 250.2h1.1V270h-1.1zM226.5 244.8h1.1V270h-1.1zM193.9 205.7h1.1V270h-1.1zM308.2 249.3h1.1V270h-1.1zM263.4 259.2h1.1V270h-1.1zM293 255.7h1.1V270H293zM170.4 267.6h1.1v2.4h-1.1zM338.7 267.4h1.1v2.6h-1.1zM195 240.8h1.1V270H195z" opacity=".3"/>
    <path d="M264.2 266.6h1.1v3.4h-1.1zM268 246.1h1.1V270H268zM357.9 268.6h1.1v1.4h-1.1zM236.4 252.6h1.1V270h-1.1zM351.2 269.5h1.1v.5h-1.1z" opacity=".3"/>
    <path d="M237 249.4h1.1V270H237zM214.5 265.5h1.1v4.5h-1.1zM230.7 255.9h1.1V270h-1.1zM263.5 253.4h1.1V270h-1.1zM325.7 266.5h1.1v3.5h-1.1zM221.2 259.7h1.1V270h-1.1zM210.4 241.2h1.1V270h-1.1zM181.3 263.5h1.1v6.5h-1.1zM262.2 260h1.1v10h-1.1zM243.6 244.7h1.1V270h-1.1z" opacity=".3"/>
    <path d="M326.3 251.2h1.1V270h-1.1zM364.3 211.3h1.1V270h-1.1zM299.9 247.2h1.1V270h-1.1zM308 246.1h1.1V270H308zM249.8 269.5h1.1v.5h-1.1zM380.4 264h1.1v6h-1.1zM263 262.8h1.1v7.2H263zM302.4 248.5h1.1V270h-1.1zM141.1 260.3h1.1v9.7h-1.1zM277.6 249.3h1.1V270h-1.1zM271.4 233.7h1.1V270h-1.1zM285.7 261.8h1.1v8.2h-1.1zM228.9 252h1.1v18h-1.1zM203.8 173.9h1.1V270h-1.1z" opacity=".3"/>
    <path d="M262.2 251.2h1.1V270h-1.1zM318.8 265.9h1.1v4.1h-1.1zM233.4 268.8h1.1v1.2h-1.1z" opacity=".3"/>
    <path d="M318.8 232.3h1.1V270h-1.1zM281.4 243.4h1.1V270h-1.1zM323.8 266.8h1.1v3.2h-1.1zM230.9 269.9h1.1v.1h-1.1zM219.7 226.6h1.1V270h-1.1zM203.4 266.5h1.1v3.5h-1.1zM279.4 228.8h1.1V270h-1.1zM158.3 256.1h1.1V270h-1.1zM250.2 259.4h1.1V270h-1.1zM254.4 266.8h1.1v3.2h-1.1z" opacity=".3"/>
    <path d="M230.1 236.7h1.1V270h-1.1zM262.5 264h1.1v6h-1.1zM240.6 247h1.1v23h-1.1zM349.9 253.3h1.1V270h-1.1zM275.6 265.7h1.1v4.3h-1.1zM243.3 230h1.1v40h-1.1zM265.5 245h1.1v25h-1.1zM323.4 263.7h1.1v6.3h-1.1zM181.6 269.1h1.1v.9h-1.1zM235.8 140.9h1.1V270h-1.1zM317.9 260.7h1.1v9.3h-1.1zM334.6 263.5h1.1v6.5h-1.1zM271.5 255.7h1.1V270h-1.1z" opacity=".3"/>
    <path d="M272.1 253.7h1.1V270h-1.1zM266.4 208.1h1.1V270h-1.1zM160.3 269.9h1.1v.1h-1.1zM282.3 236h1.1v34h-1.1zM184.1 236.4h1.1V270h-1.1zM201.1 254.3h1.1V270h-1.1zM325.8 263.5h1.1v6.5h-1.1zM168 265.9h1.1v4.1H168zM374.2 268.4h1.1v1.6h-1.1zM347.2 232.5h1.1V270h-1.1zM193.6 262.8h1.1v7.2h-1.1zM312.8 184.1h1.1V270h-1.1zM191.2 250.7h1.1V270h-1.1z" opacity=".3"/>
    <path d="M266.6 246.3h1.1V270h-1.1zM327.4 233.9h1.1V270h-1.1zM246.3 227.1h1.1V270h-1.1zM302.2 262.1h1.1v7.9h-1.1zM226 245.7h1.1V270H226zM282.9 263.7h1.1v6.3h-1.1zM219.2 254.5h1.1V270h-1.1zM211 269.1h1.1v.9H211zM195 234.4h1.1V270H195zM339 266.7h1.1v3.3H339zM237.6 257.3h1.1V270h-1.1zM351.8 220.3h1.1V270h-1.1zM273.3 215.1h1.1V270h-1.1zM204.3 252.2h1.1V270h-1.1z" opacity=".3"/>
    <path d="M265.7 230.6h1.1V270h-1.1zM370.2 260.4h1.1v9.6h-1.1zM253.9 235.2h1.1V270h-1.1zM234.1 247.2h1.1V270h-1.1zM330.2 254.1h1.1V270h-1.1zM333.4 261h1.1v9h-1.1zM267 244.2h1.1V270H267zM187.7 247.2h1.1V270h-1.1zM299.8 240.4h1.1V270h-1.1zM368.8 247.2h1.1V270h-1.1zM272.4 222.1h1.1V270h-1.1zM262.6 263h1.1v7h-1.1z" opacity=".3"/>
    <path d="M253.8 253.7h1.1V270h-1.1zM215.4 269.5h1.1v.5h-1.1zM237 253.1h1.1V270H237zM234.4 243.4h1.1V270h-1.1zM286.8 244h1.1v26h-1.1z" opacity=".3"/>
    <path d="M286.8 257.7h1.1V270h-1.1zM327.9 253.8h1.1V270h-1.1z" opacity=".3"/>
  </g>
</svg>
